<svg xmlns="http://www.w3.org/2000/svg" viewBox="0 0 128 128" role="img" aria-label="Consolation Prize">
  <defs>
    <linearGradient id="gold" x1="0" y1="0" x2="1" y2="1">
      <stop offset="0%" stop-color="#fff7cc"/>
      <stop offset="35%" stop-color="#facc15"/>
      <stop offset="70%" stop-color="#ca8a04"/>
      <stop offset="100%" stop-color="#fef08a"/>
    </linearGradient>
  </defs>
  <rect width="128" height="128" rx="24" fill="#ffffff"/>
  <path d="M44 86 34 118 58 102z" fill="url(#gold)" opacity=".95"/>
  <path d="M84 86 94 118 70 102z" fill="url(#gold)" opacity=".95"/>
  <circle cx="64" cy="50" r="30" fill="url(#gold)" stroke="#ca8a04" stroke-width="3"/>
  <circle cx="64" cy="50" r="20" fill="#ffffff" stroke="#fde68a" stroke-width="2"/>
  <path d="M49 59c4-9 5-18 3-28M79 59c-4-9-5-18-3-28" fill="none" stroke="#a16207" stroke-width="3" stroke-linecap="round"/>
  <path d="M50 56c3-1 5-4 6-7M78 56c-3-1-5-4-6-7" fill="none" stroke="#a16207" stroke-width="2" stroke-linecap="round"/>
  <circle cx="64" cy="50" r="4" fill="#facc15"/>
</svg>
