<svg xmlns="http://www.w3.org/2000/svg" viewBox="0 0 128 128" role="img" aria-label="Second Prize">
  <defs>
    <linearGradient id="silver" x1="0" y1="0" x2="1" y2="1">
      <stop offset="0%" stop-color="#f8fafc"/>
      <stop offset="35%" stop-color="#cbd5e1"/>
      <stop offset="65%" stop-color="#9ca3af"/>
      <stop offset="100%" stop-color="#eef2f7"/>
    </linearGradient>
    <linearGradient id="ribbonRed" x1="0" y1="0" x2="0" y2="1">
      <stop offset="0%" stop-color="#ef4444"/>
      <stop offset="100%" stop-color="#991b1b"/>
    </linearGradient>
  </defs>
  <rect width="128" height="128" rx="24" fill="#ffffff"/>
  <path d="M42 80 28 118 54 100z" fill="url(#ribbonRed)"/>
  <path d="M86 80 100 118 74 100z" fill="url(#ribbonRed)"/>
  <circle cx="64" cy="54" r="34" fill="url(#silver)" stroke="#94a3b8" stroke-width="3"/>
  <circle cx="64" cy="54" r="28" fill="none" stroke="#ffffff" stroke-opacity=".55" stroke-width="2"/>
  <path d="M64 28c-3 6-9 9-16 10 5 4 7 10 7 17-5-3-10-4-16-4 4 5 5 11 4 18 4-4 10-6 16-6 0 6 2 12 5 17 3-5 5-11 5-17 6 0 12 2 16 6-1-7 0-13 4-18-6 0-11 1-16 4 0-7 2-13 7-17-7-1-13-4-16-10z" fill="#ffffff" fill-opacity=".2"/>
  <text x="64" y="67" text-anchor="middle" font-family="Georgia, serif" font-size="36" font-weight="700" fill="#6b7280">2</text>
</svg>
