<?xml version="1.0" standalone="no"?>
<!DOCTYPE svg PUBLIC "-//W3C//DTD SVG 20010904//EN"
 "http://www.w3.org/TR/2001/REC-SVG-20010904/DTD/svg10.dtd">
<svg version="1.0" xmlns="http://www.w3.org/2000/svg"
 width="1024.000000pt" height="1024.000000pt" viewBox="0 0 1024.000000 1024.000000"
 preserveAspectRatio="xMidYMid meet">

<g transform="translate(0.000000,1024.000000) scale(0.100000,-0.100000)"
fill="#000000" stroke="none">
<path d="M3680 10184 c-41 -31 -97 -75 -125 -98 -27 -23 -70 -56 -95 -73 -25
-17 -81 -72 -124 -122 -74 -87 -287 -398 -341 -498 -14 -27 -32 -59 -40 -73
-21 -38 -65 -139 -65 -150 0 -5 -9 -24 -20 -42 -10 -19 -20 -49 -21 -68 -2
-19 -7 -40 -12 -47 -5 -7 -6 -16 -3 -21 3 -5 1 -24 -4 -43 -14 -50 -19 -129
-9 -129 5 0 7 -58 4 -134 -3 -84 -1 -145 6 -162 5 -16 7 -30 2 -31 -4 -2 -7
-24 -6 -51 2 -26 4 -88 7 -139 2 -50 8 -97 12 -104 4 -7 9 -22 10 -34 2 -11 7
-42 13 -70 5 -27 8 -52 6 -54 -2 -2 3 -10 11 -18 8 -9 12 -23 9 -34 -4 -10 -2
-19 4 -19 6 0 13 -11 17 -25 3 -14 10 -25 15 -25 5 0 9 -12 9 -26 0 -14 4 -23
10 -19 6 3 10 -1 10 -10 0 -9 5 -13 10 -10 6 4 10 -5 10 -20 0 -23 2 -24 20
-15 18 10 20 8 20 -27 0 -34 1 -36 15 -17 21 28 18 13 -10 -48 -14 -29 -25
-66 -24 -83 0 -25 3 -22 13 18 7 27 19 54 26 60 10 10 12 8 7 -5 -4 -10 -2
-18 4 -18 7 0 5 -10 -4 -24 -16 -24 -16 -24 23 -28 21 -2 37 -1 34 3 -2 3 3
15 11 25 13 18 14 17 16 -16 1 -32 2 -33 9 -10 7 21 8 22 9 5 1 -11 10 -31 21
-45 16 -20 19 -21 13 -5 -6 18 -5 18 10 6 15 -12 17 -11 17 2 0 9 4 19 10 22
7 4 7 -3 0 -20 -13 -35 -13 -38 5 -31 18 6 20 -19 5 -58 -6 -17 -6 -27 1 -31
5 -4 7 -15 4 -26 -5 -14 -3 -17 9 -13 25 9 19 -11 -6 -25 -13 -6 -15 -9 -6 -7
15 4 17 -1 13 -42 -2 -26 -7 -59 -11 -74 -4 -18 -2 -28 5 -28 13 0 13 -43 1
-80 -6 -17 -7 -10 -3 23 4 39 3 47 -11 47 -9 0 -16 -4 -16 -10 0 -5 4 -10 9
-10 6 0 8 -10 5 -22 -13 -62 -3 -108 16 -78 8 12 10 11 10 -6 0 -31 21 -85 30
-79 7 5 20 -75 14 -84 -2 -2 -21 8 -42 23 -47 32 -59 33 -59 2 0 -18 9 -28 36
-41 21 -9 44 -15 51 -13 9 2 16 -6 18 -20 l3 -22 19 22 19 23 1 -35 c1 -34 2
-34 11 -10 l10 25 13 -25 c8 -14 19 -47 25 -75 13 -58 60 -272 66 -297 4 -21
-20 -23 -80 -7 -54 15 -120 84 -130 135 -4 22 -28 67 -55 104 -26 36 -54 79
-63 96 -23 45 -70 213 -63 229 2 7 -2 16 -10 19 -19 7 -19 9 17 -119 36 -126
50 -157 113 -239 24 -33 49 -79 55 -103 21 -81 99 -141 195 -148 l40 -3 42
-167 c46 -183 68 -249 122 -370 32 -71 37 -98 53 -245 27 -248 28 -239 -32
-312 -28 -35 -64 -89 -80 -121 -84 -163 -195 -313 -320 -431 -107 -101 -137
-122 -179 -129 -43 -6 -389 -141 -650 -252 -186 -79 -492 -196 -795 -303 -223
-79 -478 -178 -544 -212 -34 -17 -79 -46 -100 -65 -25 -23 -49 -35 -67 -35
-71 -1 -150 -79 -192 -193 -11 -29 -35 -124 -52 -212 -27 -130 -31 -170 -25
-219 12 -96 9 -135 -18 -251 -30 -124 -48 -256 -77 -560 -28 -293 -36 -338
-71 -407 -29 -57 -30 -64 -19 -107 6 -25 23 -66 38 -91 23 -40 26 -54 23 -129
l-2 -84 -51 -46 c-91 -81 -98 -135 -36 -260 l42 -83 -12 -117 c-6 -64 -21
-183 -33 -266 -22 -164 -37 -620 -24 -759 l7 -76 1049 0 c993 0 1049 1 1049
18 0 9 14 30 31 46 17 16 38 40 46 53 8 12 24 23 34 23 10 0 22 6 26 12 7 12
22 17 61 20 6 1 12 5 12 10 0 4 18 6 40 4 22 -2 38 -1 35 4 -2 4 25 6 61 5 36
-1 68 3 70 7 3 5 15 6 27 1 12 -4 45 -8 72 -9 111 -6 124 -7 118 -17 -4 -6 0
-8 10 -4 10 3 17 2 17 -3 0 -6 3 -9 8 -8 4 1 32 -11 62 -25 30 -15 61 -27 68
-27 7 0 15 -6 18 -14 3 -8 19 -20 35 -26 16 -7 26 -16 24 -21 -3 -4 3 -8 12
-8 34 1 55 -8 65 -24 8 -16 140 -17 1878 -17 1774 0 1870 1 1872 18 0 9 1 22
1 29 0 7 4 11 10 10 6 -1 18 20 27 46 8 27 19 45 23 41 4 -4 7 -1 7 7 0 8 11
27 25 43 14 16 25 33 25 37 0 4 14 16 30 26 17 10 28 23 25 31 -3 10 0 10 16
1 19 -10 20 -9 9 11 -11 20 -10 21 9 11 27 -15 30 -14 24 9 -4 16 -2 19 12 13
12 -4 16 -3 12 4 -9 14 18 24 41 16 9 -4 -1 10 -23 30 -22 20 -34 37 -27 37 6
0 12 -4 12 -10 0 -5 5 -10 10 -10 6 0 10 7 10 15 0 8 5 15 10 15 7 0 7 -6 0
-20 -9 -16 -8 -20 5 -20 8 0 15 5 15 11 0 6 18 27 39 48 37 36 38 39 21 51
-11 8 -17 17 -14 21 6 10 44 -1 44 -14 0 -6 3 -8 6 -5 3 4 1 15 -5 26 -8 16
-7 21 5 26 8 3 13 10 10 14 -6 11 16 35 73 82 24 19 48 40 55 46 6 5 19 13 29
17 9 3 17 11 17 17 0 5 7 10 15 10 8 0 15 5 15 10 0 6 5 10 11 10 6 0 17 7 26
15 10 10 23 13 36 9 19 -6 20 -5 9 9 -11 13 -10 16 8 22 15 5 19 10 12 17 -11
11 20 53 37 53 5 0 27 19 49 43 22 23 44 42 50 42 5 0 12 7 16 15 3 8 16 15
29 15 14 0 30 7 37 15 7 8 9 15 4 15 -4 0 1 7 12 15 18 14 17 15 -8 4 -15 -7
-25 -16 -21 -22 3 -6 1 -7 -5 -4 -11 7 -103 -35 -137 -62 -18 -15 -19 -15 -6
2 23 29 218 129 256 130 70 2 107 -38 107 -114 -1 -76 -37 -125 -123 -168 -14
-7 -57 -37 -95 -68 -38 -30 -141 -103 -229 -161 -88 -58 -178 -122 -200 -142
-79 -71 -251 -257 -308 -332 -31 -42 -64 -84 -73 -92 -14 -15 -12 -16 24 -16
34 0 42 5 71 45 18 25 36 45 42 45 5 0 9 6 9 13 0 16 66 88 74 80 3 -4 6 0 6
9 0 8 11 21 25 28 13 7 21 18 18 23 -4 6 1 8 11 4 14 -5 17 -3 12 8 -7 18 5
20 24 2 11 -9 11 -8 0 7 -12 15 -12 20 -2 23 6 3 12 14 12 25 0 16 5 19 21 15
16 -4 18 -3 8 9 -9 11 -8 14 5 14 9 0 15 3 15 8 -4 21 3 23 23 6 l21 -19 -18
28 c-19 30 -14 47 8 29 11 -9 13 -7 13 9 -1 34 28 47 56 24 l23 -20 -22 26
c-24 26 -31 45 -13 34 6 -3 10 -2 10 3 0 5 25 25 55 43 31 19 68 44 83 57 47
40 161 112 177 112 8 0 15 4 15 9 0 23 90 34 122 15 7 -4 5 2 -4 13 -34 37
-18 47 19 12 l37 -34 -27 34 c-26 31 -27 34 -10 47 10 8 38 23 62 34 24 11 42
23 38 26 -3 3 -20 -2 -37 -11 -72 -37 -13 7 78 59 129 73 185 96 231 96 70 0
119 -63 108 -140 -7 -52 -38 -94 -95 -127 -63 -37 -521 -378 -698 -520 -129
-103 -230 -203 -205 -203 5 0 41 31 78 69 83 83 263 228 494 397 96 69 192
141 214 158 22 18 68 49 103 70 72 43 94 43 141 -4 36 -36 48 -88 32 -140 -11
-39 -96 -133 -184 -207 l-49 -40 26 -38 c48 -70 31 -140 -57 -232 l-31 -33
554 0 553 0 -7 187 c-13 360 -73 743 -176 1123 -28 102 -57 222 -66 268 -15
82 -15 84 10 170 14 48 26 97 26 109 0 28 -39 74 -84 98 -33 18 -36 23 -36 62
0 68 -48 483 -76 653 -14 85 -36 193 -49 240 -35 125 -40 164 -25 226 16 66 5
114 -44 189 -47 72 -48 82 -21 160 14 39 25 91 25 116 0 103 -69 294 -134 367
-32 36 -80 62 -117 62 -11 0 -32 9 -46 20 -14 11 -21 20 -16 20 6 0 16 -6 22
-14 6 -7 30 -16 52 -19 22 -3 59 -18 82 -33 23 -16 53 -30 67 -31 14 -2 41 -6
60 -9 53 -8 138 -4 168 7 15 6 47 13 72 16 25 2 60 8 77 13 18 5 35 5 38 0 10
-16 106 -1 138 22 36 25 80 68 69 68 -4 0 -1 4 5 8 14 9 24 67 15 77 -10 9
-12 39 -5 55 4 8 8 26 9 40 0 14 5 39 9 55 4 17 7 38 8 48 1 10 7 15 14 13 17
-7 16 4 -2 24 -15 16 -13 17 17 16 28 -1 32 2 33 27 1 15 -2 30 -7 33 -5 3 3
17 17 30 14 13 21 24 14 24 -6 0 -9 7 -5 15 3 8 0 15 -6 15 -7 0 -4 6 5 12 18
14 12 31 -13 41 -12 4 -12 6 1 6 18 1 35 31 19 31 -6 0 -9 20 -6 45 3 45 -6
67 -18 43 -4 -7 -4 -3 -2 9 2 12 -2 24 -10 27 -16 6 -28 -9 -19 -24 3 -5 1
-10 -4 -10 -6 0 -11 7 -11 15 0 8 -5 15 -11 15 -5 0 -7 5 -4 10 3 6 -1 10 -9
10 -9 0 -15 3 -15 8 1 4 0 9 -1 12 -1 3 -3 14 -5 25 -2 11 -6 33 -10 49 -4 21
-1 33 12 45 26 23 42 24 69 6 29 -19 54 -7 72 34 30 68 90 90 136 52 12 -11
39 -16 85 -16 77 -1 107 -9 140 -39 27 -24 42 -57 48 -103 2 -18 8 -43 13 -55
5 -14 9 185 9 525 l1 547 -82 2 c-46 1 -101 3 -123 5 -22 2 -48 4 -57 4 -10 0
-18 4 -18 10 0 5 -7 9 -15 9 -8 0 -15 5 -15 11 0 5 6 7 13 3 6 -4 5 1 -4 12
-17 20 -18 24 -23 89 -4 48 1 65 21 65 8 0 11 5 8 10 -3 6 1 10 9 10 9 0 15 3
14 8 -1 4 6 23 16 42 10 19 19 52 20 75 1 38 -10 235 -19 335 -2 25 -7 137
-11 250 -12 353 -14 339 55 410 51 51 78 70 106 75 9 1 40 9 88 22 16 4 17 33
17 429 0 394 -3 449 -25 414 -4 -6 -14 -10 -23 -9 -10 1 -25 -1 -35 -6 -21 -9
-53 -9 -122 -1 -27 3 -54 7 -60 7 -5 1 -32 -2 -60 -6 -27 -3 -62 -6 -77 -5
-16 0 -28 -5 -28 -11 0 -6 -7 -8 -16 -5 -8 3 -12 2 -9 -4 4 -6 -13 -10 -42
-11 -26 -1 -73 -2 -103 -4 -113 -5 -148 -5 -258 -3 -63 2 -116 0 -118 -4 -4
-7 -115 -22 -154 -21 -14 0 -79 6 -145 13 -66 6 -138 13 -160 15 -63 5 -95 13
-135 32 -26 14 -37 15 -37 6 0 -7 5 -10 11 -7 6 3 4 -1 -4 -8 -21 -19 -36 -48
-44 -84 -4 -17 -15 -40 -24 -50 -38 -41 -42 -72 -41 -339 0 -143 0 -312 -1
-375 -1 -63 1 -178 3 -255 2 -77 0 -148 -5 -157 -6 -12 -5 -18 3 -18 7 0 8 -5
3 -12 -5 -7 -9 -57 -9 -110 0 -59 -4 -98 -10 -98 -5 0 -4 -4 4 -9 10 -6 11
-13 2 -29 -8 -14 -8 -23 -1 -27 7 -4 7 -12 2 -18 -4 -7 -7 -23 -5 -37 10 -64
1 -210 -14 -233 -3 -6 -1 -7 5 -3 8 5 8 -2 0 -25 -6 -18 -7 -34 -2 -38 27 -19
75 -134 80 -193 9 -96 7 -116 -15 -151 -51 -81 -54 -91 -56 -187 -1 -52 2
-103 7 -114 6 -10 6 -16 1 -13 -7 4 -12 -107 -13 -308 0 -33 -1 -73 -2 -90 -1
-38 0 -201 2 -483 2 -122 0 -225 -3 -229 -4 -3 -2 -15 4 -26 6 -11 7 -17 1
-13 -9 5 -13 -28 -16 -131 -1 -18 -4 -33 -8 -33 -19 0 8 -40 33 -49 16 -5 29
-12 29 -15 0 -5 -192 54 -255 79 -25 9 -31 14 -15 12 25 -3 25 -2 26 74 0 43
-2 76 -5 74 -6 -3 -5 401 2 476 2 25 7 50 10 57 4 6 3 13 -2 16 -5 3 -6 21 -2
38 4 18 5 71 3 118 -2 47 -4 213 -6 370 -4 340 -2 316 -23 338 -25 26 -43 59
-43 77 0 8 -6 15 -14 15 -8 0 -12 9 -11 25 4 33 -11 41 -25 15 -7 -14 -17 -19
-27 -16 -10 4 -13 2 -10 -7 6 -16 5 -16 -93 -20 -41 -1 -81 1 -87 6 -8 6 -39
4 -79 -3 -76 -15 -276 -20 -316 -9 -16 4 -28 4 -28 -1 0 -11 -47 7 -71 27 -9
7 -19 10 -24 6 -4 -5 -5 -2 -1 5 4 6 2 12 -4 12 -7 0 -10 7 -7 15 4 8 2 17 -2
20 -15 9 -19 58 -7 79 18 32 28 45 83 102 29 30 50 54 47 54 -2 0 0 10 7 21 7
13 7 19 1 15 -12 -7 -19 12 -27 69 -2 22 -7 51 -11 65 -3 14 -8 55 -9 92 -2
36 -6 84 -10 105 -3 21 -8 124 -10 228 l-4 190 30 25 c17 14 50 44 74 68 45
45 89 57 117 34 7 -6 37 -9 65 -8 34 2 50 0 46 -7 -3 -6 -1 -7 6 -3 19 12 60
-22 83 -69 26 -54 44 -62 79 -36 14 11 42 23 62 26 33 6 37 4 64 -37 25 -36
52 -108 68 -181 9 -39 17 -57 26 -57 5 0 9 7 9 15 0 19 42 147 69 208 33 76
39 147 26 307 -10 134 -4 425 10 490 4 14 8 50 11 81 4 51 2 59 -28 100 -49
66 -58 85 -65 134 -5 40 -8 45 -27 40 -17 -5 -18 -4 -6 4 8 6 10 11 4 11 -7 0
-19 -11 -28 -25 -10 -15 -22 -23 -29 -19 -7 4 -9 4 -5 -1 12 -13 -41 -51 -64
-47 -5 1 -8 -2 -8 -7 0 -4 -10 -7 -22 -7 -13 1 -28 -1 -34 -6 -6 -4 -26 -8
-45 -9 -58 -3 -189 -21 -273 -39 -28 -6 -91 -12 -141 -14 -49 -2 -92 -5 -95
-6 -3 -1 -9 -1 -15 0 -5 1 -113 3 -238 5 -126 2 -231 6 -235 9 -10 11 -13 48
-2 41 5 -3 10 -2 10 4 0 5 -5 13 -11 16 -6 5 -4 11 7 19 9 7 14 18 10 24 -4 7
-2 12 5 12 7 0 5 9 -6 26 -16 25 -16 25 4 14 27 -14 29 5 4 33 -16 19 -16 20
-1 14 14 -5 16 0 12 39 -2 26 0 43 5 39 9 -5 6 33 -4 64 -3 8 0 11 9 8 10 -4
14 1 12 17 -1 12 -6 27 -10 34 -4 7 -1 12 9 12 14 0 15 9 10 63 -9 96 -11 157
-5 157 9 0 0 73 -13 98 -8 18 -8 28 2 44 10 16 10 23 0 32 -9 8 -10 8 -4 -3 5
-10 4 -12 -4 -7 -6 4 -9 12 -6 17 4 5 3 14 -1 21 -7 10 -12 45 -14 91 -1 9 -5
17 -11 17 -5 0 -9 5 -9 11 0 5 5 7 10 4 20 -12 -2 68 -23 86 l-22 18 24 -6
c27 -7 25 -2 -16 53 -24 32 -32 57 -11 36 7 -7 15 -12 19 -12 12 0 3 34 -9 38
-7 2 -12 12 -12 22 0 10 -18 29 -42 44 -26 16 -33 24 -18 19 14 -4 43 -6 65
-4 100 10 205 4 205 -12 0 -5 20 3 44 17 24 14 45 23 48 21 3 -3 20 6 39 19
65 47 88 56 167 62 63 5 87 3 113 -10 18 -9 38 -16 45 -16 15 0 94 -74 94 -88
0 -13 35 -21 51 -11 24 15 61 -21 64 -64 0 -4 7 -12 15 -17 13 -8 13 -10 0
-10 -9 0 -5 -6 10 -17 14 -9 28 -21 31 -26 4 -5 9 -4 13 2 4 6 13 11 19 11 8
0 8 -3 2 -8 -16 -11 -16 -32 0 -26 19 8 64 -27 65 -49 0 -10 5 -15 10 -12 6 3
10 3 11 -2 0 -4 2 -15 5 -23 2 -8 8 -35 13 -60 17 -84 22 -104 28 -114 4 -5 8
-19 9 -30 1 -12 5 -37 9 -56 14 -68 8 -213 -7 -204 -5 3 -11 -3 -15 -13 -4
-10 -16 -25 -26 -34 -11 -8 -22 -32 -26 -52 -5 -29 -9 -35 -21 -27 -13 9 -13
11 0 20 13 8 12 10 -2 10 -10 0 -18 5 -18 11 0 5 -6 7 -12 4 -7 -4 -5 0 4 7
15 13 15 15 -3 26 -11 7 -17 16 -14 21 2 5 -2 14 -10 21 -7 6 -11 19 -8 27 4
11 2 14 -5 9 -7 -4 -12 -1 -12 8 0 16 -19 23 -21 9 -7 -41 -10 -61 -11 -80 -1
-13 -5 -23 -8 -23 -3 0 -7 -12 -8 -27 -1 -16 -4 -41 -6 -58 -5 -38 11 -72 37
-79 22 -5 66 17 80 41 10 17 47 -1 47 -22 0 -8 9 -15 20 -15 11 0 20 -4 20
-10 0 -5 9 -10 21 -10 11 0 29 -5 40 -11 11 -6 30 -12 42 -15 11 -2 25 -10 29
-19 5 -8 18 -15 28 -15 11 0 20 -5 20 -11 0 -5 -4 -8 -9 -5 -5 3 -11 -3 -14
-15 -4 -15 1 -23 19 -30 14 -5 27 -9 28 -9 3 0 6 23 7 52 0 9 29 46 65 83 35
37 61 71 58 76 -3 5 -1 9 4 9 5 0 7 12 5 28 -3 15 -6 169 -7 342 -1 173 -6
365 -11 425 -11 124 -11 459 -1 580 12 147 15 176 21 185 3 5 1 11 -4 15 -6 3
-7 15 -1 29 4 12 4 29 0 36 -5 8 -6 18 -4 22 3 4 1 8 -5 8 -6 0 -8 7 -5 15 4
8 1 15 -6 15 -6 0 -9 4 -6 9 6 10 -50 63 -77 74 -11 4 -49 2 -85 -4 -37 -6
-92 -12 -122 -15 -30 -2 -71 -6 -90 -9 -19 -3 -62 -8 -95 -10 -33 -3 -89 -8
-125 -11 -36 -3 -85 -7 -110 -8 -194 -14 -244 -18 -310 -26 -41 -5 -100 -9
-131 -9 -30 -1 -64 -3 -75 -5 -10 -2 -71 -7 -134 -11 -63 -4 -136 -8 -162 -10
-50 -3 -87 -25 -112 -66 -33 -55 -44 -251 -27 -464 5 -59 3 -92 -3 -97 -7 -5
-5 -8 4 -8 8 0 31 -14 50 -30 l35 -30 -45 21 c-25 11 -62 27 -82 36 -21 9 -38
20 -38 24 0 16 -111 42 -135 31 -12 -6 -28 -6 -35 -2 -8 5 -18 6 -22 4 -8 -5
-9 -4 -13 32 -13 122 -21 163 -49 249 -44 132 -58 158 -127 230 l-58 61 72 0
c68 0 136 13 165 32 8 5 15 37 17 80 l5 72 -185 0 c-174 0 -185 -1 -177 -17
16 -31 22 -94 9 -87 -7 3 5 -9 26 -26 20 -18 37 -36 37 -42 0 -5 -17 4 -37 20
-21 16 -80 57 -132 91 l-93 61 -1067 0 -1066 0 -75 -56z m2509 -178 c-3 -3
-11 5 -18 17 -13 21 -12 21 5 5 10 -10 16 -20 13 -22z m376 -546 c8 -13 -15
-13 -35 0 -12 8 -11 10 7 10 12 0 25 -4 28 -10z m-8 -36 c-3 -3 -12 -4 -19 -1
-8 3 -5 6 6 6 11 1 17 -2 13 -5z m-1397 -144 c0 -5 -2 -10 -4 -10 -3 0 -8 5
-11 10 -3 6 -1 10 4 10 6 0 11 -4 11 -10z m75 0 c3 -5 1 -10 -4 -10 -6 0 -11
5 -11 10 0 6 2 10 4 10 3 0 8 -4 11 -10z m-182 -7 c-7 -2 -21 -2 -30 0 -10 3
-4 5 12 5 17 0 24 -2 18 -5z m-78 -13 c-3 -5 -11 -10 -16 -10 -6 0 -7 5 -4 10
3 6 11 10 16 10 6 0 7 -4 4 -10z m85 -6 c30 1 75 -3 100 -7 42 -7 44 -7 26 8
-11 8 -15 15 -9 15 7 0 18 -6 26 -14 8 -9 19 -11 27 -6 16 10 33 3 25 -11 -9
-14 18 -10 39 6 26 20 38 19 62 -3 10 -10 35 -18 57 -19 36 -1 50 10 25 20 -7
3 -3 6 10 6 12 1 22 -3 22 -9 0 -5 5 -10 11 -10 5 0 7 6 3 13 -4 6 6 0 22 -14
41 -38 173 -100 209 -98 9 0 -42 22 -100 43 -16 6 -17 9 -5 17 12 8 11 9 -6 5
-24 -7 -60 16 -50 33 5 8 13 8 26 1 10 -5 30 -10 45 -10 14 0 24 -4 21 -9 -3
-5 12 -11 34 -13 l41 -4 -23 19 c-14 11 -3 8 25 -7 26 -15 53 -24 60 -20 6 4
9 4 5 -1 -4 -4 0 -14 10 -21 15 -12 14 -13 -14 -14 -17 0 -45 5 -63 11 -18 6
-34 9 -37 6 -3 -2 16 -11 41 -18 40 -12 43 -15 23 -20 -19 -5 -14 -7 22 -14
25 -4 62 -16 82 -26 21 -11 47 -19 59 -19 12 0 31 -8 42 -17 19 -17 20 -17 8
4 -10 20 -9 22 6 16 33 -11 45 -25 31 -34 -17 -11 -5 -21 15 -13 10 3 13 12 9
22 -8 22 59 -31 113 -89 33 -35 35 -40 13 -26 -21 13 -28 14 -28 5 -1 -8 -6
-6 -14 5 -8 10 -17 17 -20 15 -12 -7 -54 34 -49 48 3 8 -1 14 -11 14 -9 0 -16
-4 -16 -9 0 -16 92 -91 111 -91 11 0 18 -3 18 -7 -3 -20 4 -34 41 -79 21 -26
37 -51 34 -55 -2 -5 5 -13 16 -19 13 -7 19 -17 16 -26 -3 -8 -9 -21 -12 -29
-5 -11 -2 -14 12 -9 11 4 16 3 12 -1 -5 -5 1 -15 13 -23 11 -8 18 -20 15 -27
-2 -7 1 -18 7 -25 9 -10 9 -11 0 -6 -7 4 -13 2 -13 -3 0 -6 5 -11 10 -11 6 0
10 -8 10 -17 0 -9 7 -25 17 -35 18 -20 5 -25 -17 -5 -7 6 3 -12 23 -40 20 -29
32 -53 27 -53 -6 0 -10 5 -10 10 0 6 -4 10 -8 10 -11 0 -7 -60 7 -93 6 -16 9
-33 6 -38 -4 -5 7 -28 23 -51 16 -24 29 -45 28 -48 0 -3 10 -23 23 -45 14 -22
24 -44 23 -49 -2 -4 7 -36 19 -70 30 -89 46 -193 65 -436 14 -182 15 -235 4
-345 -6 -71 -13 -141 -13 -155 -1 -14 -6 -28 -12 -32 -6 -5 -5 -8 4 -8 9 0 11
-6 6 -17 -4 -10 -10 -49 -14 -86 -7 -65 -6 -68 14 -63 11 3 26 6 34 6 8 0 11
6 7 16 -3 8 -2 12 4 9 13 -8 25 26 35 90 3 28 8 59 10 70 2 11 4 29 4 40 1 17
3 17 11 5 12 -19 12 -13 1 28 -6 20 -6 30 0 27 11 -8 11 -10 -4 50 -8 28 -11
69 -9 93 4 43 4 43 25 25 14 -11 18 -12 11 -3 -14 20 -16 60 -3 60 6 0 1 16
-11 35 -24 39 -18 47 11 13 l19 -23 -11 33 c-6 17 -15 35 -20 38 -5 3 -9 13
-9 22 0 15 2 15 10 2 8 -13 10 -12 11 5 1 11 1 24 0 29 -1 5 6 3 15 -5 15 -12
17 -12 12 1 -6 15 15 43 25 33 3 -3 3 6 0 19 -3 12 -3 20 2 16 4 -4 14 0 22 8
9 8 23 12 34 9 13 -4 19 -2 19 9 0 27 29 18 50 -16 23 -38 46 -135 55 -233 8
-82 -6 -153 -59 -294 -20 -52 -34 -97 -32 -99 2 -2 16 29 31 67 16 41 34 71
42 71 9 0 11 -5 7 -12 -5 -8 -1 -7 10 2 16 13 20 12 31 -3 7 -9 16 -17 20 -17
23 0 106 -125 98 -147 -2 -7 1 -22 8 -35 7 -13 14 -34 15 -47 2 -13 5 -26 8
-28 3 -3 1 -14 -5 -24 -5 -11 -6 -19 -1 -19 5 0 8 -19 7 -42 -2 -25 2 -46 8
-50 8 -5 6 -8 -6 -8 -10 0 -15 -4 -12 -10 3 -5 1 -10 -5 -10 -5 0 -10 -12 -9
-27 0 -16 -2 -48 -5 -73 -4 -25 -8 -125 -10 -222 -4 -196 -3 -201 60 -211 17
-3 41 -10 53 -16 11 -7 21 -9 21 -6 0 3 10 -1 21 -9 12 -8 28 -12 37 -9 10 4
13 2 8 -5 -5 -8 0 -12 13 -12 12 0 21 -5 21 -11 0 -5 4 -8 9 -5 16 10 71 -44
71 -69 0 -13 4 -26 9 -29 5 -3 7 -15 4 -26 -3 -11 -9 -17 -14 -15 -11 7 -30
-30 -21 -40 4 -5 1 -5 -7 0 -8 4 -17 2 -21 -6 -7 -10 -12 -10 -23 -1 -7 7 -16
9 -19 7 -11 -11 -48 -14 -48 -4 0 6 -5 7 -11 4 -32 -21 -456 -20 -502 0 -29
12 -114 0 -134 -20 -10 -10 -16 -19 -13 -19 7 -1 -34 -66 -42 -66 -4 0 -7
-161 -8 -357 0 -197 -1 -386 -1 -421 -1 -47 3 -68 17 -85 10 -12 -12 7 -49 43
-38 36 -106 119 -152 185 -80 113 -129 175 -138 175 -2 0 -7 -27 -10 -60 -5
-42 -2 -72 8 -98 57 -150 63 -340 17 -562 -11 -52 -53 -207 -93 -345 -221
-766 -246 -858 -248 -898 -1 -11 -5 -15 -13 -11 -8 5 -9 2 -4 -11 3 -10 1 -34
-5 -53 -6 -19 -24 -87 -39 -151 -32 -131 -38 -118 -14 29 11 62 21 97 27 93 6
-4 8 0 5 8 -17 46 -20 61 -8 54 9 -6 9 -2 0 16 -18 35 -23 38 -16 9 6 -24 6
-24 -9 3 -9 15 -13 33 -9 39 5 7 3 8 -6 3 -9 -5 -10 -2 -6 11 3 11 1 26 -5 34
-8 12 -9 10 -4 -7 10 -35 -1 -27 -29 21 -31 53 -34 71 -5 36 14 -17 17 -19 10
-5 -20 41 -36 55 -50 46 -13 -8 -13 -12 -1 -26 12 -14 12 -18 0 -25 -9 -5 -20
-4 -29 3 -12 10 -14 9 -7 -8 5 -15 4 -17 -5 -8 -15 15 -3 34 19 26 15 -6 15
-5 3 10 -10 13 -11 20 -2 30 8 11 6 13 -12 11 -33 -4 -33 -4 -17 -14 12 -7 12
-12 3 -21 -10 -10 -17 -8 -31 9 -11 12 -22 19 -26 15 -8 -8 -8 25 0 54 4 13
14 23 24 23 10 0 20 6 22 12 3 7 17 -6 33 -30 15 -23 30 -42 32 -42 23 0 -219
308 -296 378 -79 73 -98 84 -120 72 -12 -6 -21 -16 -21 -22 0 -17 -30 -47 -43
-44 -7 2 -9 1 -4 -1 13 -8 7 -23 -9 -23 -8 0 -13 -4 -10 -8 3 -5 -80 -9 -183
-11 -104 -1 -214 -6 -245 -10 -31 -4 -56 -5 -56 -2 0 4 31 37 69 75 57 57 72
67 92 62 23 -7 23 -7 5 8 -11 9 -23 16 -26 16 -3 0 -68 -61 -143 -136 -142
-139 -159 -163 -387 -519 -30 -46 -57 -82 -61 -77 -4 4 -11 23 -17 42 -5 19
-80 224 -166 455 -222 595 -220 589 -256 705 -38 125 -69 244 -65 248 2 2 9
-14 16 -37 6 -22 15 -38 20 -36 4 3 1 18 -6 33 -26 51 -39 158 -21 169 5 3 6
1 2 -5 -4 -7 -3 -12 3 -12 6 0 8 16 5 40 -4 29 -2 40 8 40 9 1 8 5 -4 14 -10
7 -18 19 -18 27 0 11 2 11 11 -1 9 -13 10 -13 6 0 -2 8 -9 16 -15 16 -23 3
-24 4 -12 19 7 8 17 12 24 8 6 -4 5 1 -3 10 -7 9 -17 15 -21 12 -5 -3 -6 5 -3
17 4 19 3 20 -6 8 -14 -19 -14 -77 -1 -85 7 -5 8 -11 1 -19 -5 -6 -12 -32 -14
-56 -3 -25 -4 23 -2 105 2 114 7 162 21 200 l18 50 8 -40 c5 -22 7 -53 4 -68
-3 -15 -2 -26 2 -23 4 2 9 -10 9 -27 1 -18 -1 -26 -3 -19 -8 18 -20 15 -21 -7
-2 -20 22 -35 37 -26 5 3 16 -8 25 -25 8 -16 12 -30 8 -30 -5 0 0 -5 10 -11
12 -7 16 -18 13 -32 -3 -12 -3 -16 0 -9 4 8 15 -1 33 -25 37 -52 76 -89 184
-179 l92 -76 -88 83 c-72 69 -88 90 -90 116 -1 18 -8 33 -14 33 -8 0 -11 11
-9 29 3 23 0 28 -13 23 -13 -5 -14 -3 -3 10 14 17 7 48 -12 49 -6 0 -2 4 9 9
17 7 17 9 3 9 -11 1 -18 9 -18 20 0 10 -7 24 -15 31 -10 8 -12 16 -6 19 7 5 6
15 -3 32 -7 13 -11 30 -8 37 2 6 -3 15 -12 18 -9 3 -16 11 -16 16 0 6 7 8 14
5 10 -4 13 -1 9 8 -3 8 -9 12 -14 9 -5 -3 -6 2 -3 10 3 9 13 16 21 16 24 0 93
42 86 53 -3 6 -1 7 6 3 8 -5 9 -12 2 -20 -7 -8 -5 -12 9 -12 10 0 17 3 15 6
-2 3 0 12 6 20 7 12 9 10 9 -9 0 -15 5 -21 13 -18 7 3 19 -4 26 -14 6 -11 16
-17 21 -14 5 3 20 -5 33 -18 14 -12 38 -29 54 -37 15 -8 30 -16 32 -17 2 -1
-2 -11 -10 -20 -10 -14 -10 -15 0 -6 15 13 56 2 106 -29 l30 -18 -32 6 c-48 9
-40 -1 22 -31 30 -15 55 -31 55 -35 0 -5 9 -6 20 -3 11 3 20 1 20 -5 0 -5 18
-12 40 -16 36 -6 45 -14 41 -38 0 -5 4 -8 10 -8 6 0 8 7 5 16 -5 12 0 15 22
12 15 -2 26 -7 25 -13 0 -5 24 -11 55 -13 32 -1 68 -5 82 -8 52 -13 262 -18
365 -9 22 2 48 4 58 4 9 1 17 6 17 11 0 6 -26 10 -57 10 -64 0 -68 8 -6 13 23
2 48 9 57 16 11 9 16 10 16 2 0 -6 4 -11 9 -11 4 0 6 11 4 24 -3 13 0 27 6 30
6 4 11 12 11 17 0 6 -4 8 -8 5 -5 -3 -20 -7 -35 -10 -20 -3 -24 -1 -20 10 6
16 -17 16 -29 -1 -4 -5 -8 -1 -8 10 0 17 -2 17 -10 5 -8 -12 -10 -12 -10 5 -1
19 -2 19 -14 3 -7 -10 -16 -15 -20 -11 -4 4 -19 8 -34 8 -15 0 -31 3 -37 6 -5
3 -25 6 -43 7 -49 3 -56 5 -69 22 -11 13 -12 12 -7 -4 7 -17 5 -17 -25 -2 -17
9 -31 20 -31 24 0 4 -17 7 -39 7 -22 1 -45 8 -55 18 -21 21 -33 23 -16 2 7 -8
8 -15 2 -15 -5 0 -15 6 -21 14 -7 8 -23 13 -36 11 -14 -1 -25 2 -25 6 0 5 5 9
11 9 5 0 7 5 3 12 -6 9 -9 9 -12 0 -6 -18 -26 -14 -40 8 -7 11 -21 20 -31 20
-11 0 -23 5 -26 11 -4 6 -13 8 -21 5 -8 -3 -11 0 -7 10 3 8 2 14 -3 13 -21 -4
-34 2 -34 14 0 7 -11 23 -25 35 -22 20 -25 20 -26 4 -1 -16 -2 -16 -6 1 -2 9
-10 17 -17 17 -7 0 -21 9 -31 20 -17 19 -17 20 0 20 22 0 14 10 -12 15 -10 1
-17 7 -16 13 1 5 -7 8 -17 5 -14 -4 -20 0 -20 11 0 9 -4 16 -10 16 -5 0 -10 7
-10 15 0 8 -5 15 -11 15 -5 0 -7 -4 -4 -10 3 -5 1 -10 -4 -10 -6 0 -11 9 -11
21 0 11 -5 17 -10 14 -6 -4 -10 -3 -9 2 3 13 -12 43 -22 43 -5 0 -18 8 -28 18
-38 33 -50 42 -63 42 -10 0 -11 2 0 8 9 7 8 13 -8 27 -11 10 -20 15 -20 11 0
-4 -7 0 -16 8 -8 9 -12 21 -8 27 4 8 3 9 -5 5 -6 -4 -14 0 -17 8 -3 9 -17 16
-31 16 -20 0 -23 4 -18 23 5 16 4 18 -3 8 -8 -11 -12 -10 -23 8 -8 11 -20 21
-27 21 -10 0 -10 5 -1 22 10 18 9 20 -5 15 -10 -4 -21 1 -28 13 -7 11 -20 20
-28 20 -12 0 -13 2 -1 9 11 7 10 11 -5 20 -11 6 -15 11 -10 11 5 0 0 8 -10 18
-36 33 -61 77 -57 102 2 16 0 20 -5 12 -9 -14 -42 -6 -42 10 0 6 7 8 15 4 8
-3 15 -1 15 4 0 6 -7 10 -15 10 -14 0 -19 11 -16 38 1 6 -3 12 -10 12 -6 0 -9
7 -5 15 3 9 -4 27 -17 41 -12 14 -23 31 -23 37 -1 7 -3 14 -4 17 -8 22 -5 47
6 43 10 -4 11 3 4 28 -5 18 -8 34 -6 37 3 2 -2 19 -10 37 -9 23 -10 36 -3 40
6 4 6 12 1 18 -5 7 -9 23 -10 36 0 13 -7 28 -14 33 -10 6 -10 10 2 18 8 5 11
10 6 10 -5 0 -2 8 5 18 7 9 9 14 5 10 -15 -13 -38 29 -28 48 6 11 5 26 -4 43
-10 20 -11 27 -1 33 9 6 8 10 -3 18 -12 8 -13 12 -1 19 10 7 8 12 -10 25 -20
14 -22 18 -9 26 12 7 12 12 2 22 -6 6 -12 20 -12 31 0 10 -4 16 -9 12 -6 -3
-9 3 -9 12 1 10 -2 31 -6 46 -5 20 -3 27 4 22 7 -4 4 7 -5 25 -9 18 -15 44
-12 57 3 16 0 23 -7 20 -7 -3 -13 4 -13 14 -1 10 4 19 10 19 7 0 6 4 -3 10 -8
5 -11 10 -6 10 5 0 2 8 -5 17 -8 9 -9 14 -3 10 16 -9 28 23 14 37 -8 8 -9 6
-5 -6 5 -11 2 -18 -6 -18 -7 0 -9 3 -6 6 3 4 2 16 -4 27 -8 14 -8 18 0 13 6
-4 11 0 11 9 0 10 -5 13 -12 9 -7 -5 -8 -3 -2 7 10 17 12 79 2 79 -5 0 -8 5
-8 11 0 5 4 8 9 4 5 -3 12 -1 16 5 3 5 0 10 -8 10 -15 0 -21 46 -7 55 4 2 5
16 2 30 -3 20 -7 23 -18 14 -10 -8 -8 2 5 31 13 30 16 51 11 75 -4 18 -4 39 1
46 5 8 3 17 -4 21 -9 6 -9 8 0 8 8 0 10 7 6 18 -6 15 -5 15 10 3 15 -12 17
-11 17 3 0 9 -4 16 -9 16 -5 0 -11 7 -14 14 -4 10 -1 13 7 10 17 -7 27 31 12
47 -8 9 -8 10 2 5 19 -11 41 12 37 37 -4 21 -4 21 16 -3 11 -14 18 -20 15 -13
-3 6 -1 22 4 35 10 23 10 23 6 1 -5 -28 2 -29 21 -5 8 9 12 12 9 6 -3 -7 1
-18 10 -25 13 -11 15 -11 14 2 -5 31 1 44 10 22 8 -18 18 -22 79 -25 65 -3 71
-1 76 19 5 20 10 21 58 17 39 -3 48 -1 34 7 -9 5 -40 11 -67 11 -27 1 -47 4
-44 7 9 10 67 10 104 0 22 -5 36 -5 40 1 4 6 23 11 43 12 53 2 46 18 -7 18
-25 0 -48 5 -51 10 -8 12 -7 12 91 -4 44 -7 89 -9 100 -5 17 7 16 8 -6 8 -14
1 -32 6 -40 12 -11 8 -5 9 25 6 22 -3 51 -8 65 -11 l25 -7 -25 16 -25 15 35
-5 c19 -2 69 -9 110 -15 41 -5 86 -13 99 -16 19 -6 22 -4 16 6 -5 8 1 7 16 -3
25 -18 44 -22 35 -8 -5 8 71 -2 102 -14 15 -6 16 7 0 23 -14 14 56 -21 77 -38
25 -20 18 7 -7 30 l-23 21 28 -10 c38 -15 34 -3 -15 42 -25 22 -29 28 -9 13
21 -17 41 -25 55 -21 11 2 16 2 10 -1 -13 -6 -7 -44 7 -44 5 0 6 8 3 18 -5 15
-3 14 10 -2 24 -30 27 -14 4 22 -12 20 -26 31 -34 28 -8 -3 -30 6 -50 19 -20
14 -31 25 -24 25 8 0 24 -10 37 -22 18 -16 26 -19 35 -10 9 9 7 13 -8 17 -10
4 -30 13 -44 20 -14 7 -32 13 -40 12 -27 -2 -110 15 -116 24 -3 5 -10 7 -15 3
-5 -3 -7 -9 -5 -13 3 -4 -12 -5 -31 -3 -35 4 -35 5 -13 17 22 12 22 12 1 18
-11 3 -19 2 -16 -3 6 -10 -53 -35 -62 -26 -3 3 1 6 10 6 9 0 19 5 23 12 5 8 2
9 -11 4 -16 -6 -16 -4 -4 10 13 16 12 16 -18 0 -18 -9 -33 -12 -33 -6 0 5 5
10 10 10 6 0 10 5 10 10 0 6 -13 4 -30 -5 -16 -9 -30 -11 -30 -6 0 5 6 12 13
14 7 3 5 6 -6 6 -10 1 -20 -5 -23 -13 -3 -8 -13 -17 -22 -21 -13 -5 -13 -2 3
15 10 11 14 20 10 20 -5 0 0 7 11 15 10 8 14 15 7 15 -6 0 -20 -11 -30 -23
-20 -26 -62 -52 -70 -44 -2 3 9 13 26 23 17 10 33 24 36 32 3 9 -8 6 -33 -9
l-37 -22 28 30 c34 37 23 49 -27 28 -19 -8 -41 -15 -48 -14 -7 0 1 7 19 15 17
7 35 19 39 26 6 10 5 11 -8 1 -8 -7 -18 -10 -21 -7 -3 4 -34 -12 -69 -35 -45
-29 -54 -33 -33 -14 17 16 41 36 55 45 35 24 12 22 -25 -2 -16 -11 -41 -27
-55 -36 -14 -9 -8 0 14 20 32 30 35 36 18 36 -12 0 -24 -4 -27 -10 -9 -15 -25
-12 -25 5 0 11 -16 5 -56 -21 -31 -20 -58 -33 -61 -31 -3 3 9 13 26 22 38 19
40 29 6 22 -17 -3 -24 0 -22 7 2 6 15 10 28 9 13 -1 18 1 11 4 -10 4 -10 8 0
21 10 12 7 12 -14 -2 -40 -26 -60 -16 -47 23 7 20 7 36 1 48 -7 12 -6 20 5 28
8 6 16 30 17 53 3 37 1 41 -12 30 -13 -12 -14 -10 -2 9 8 12 19 19 25 15 5 -3
3 5 -6 18 -18 30 -19 144 -1 162 7 7 12 20 12 31 0 10 5 15 10 12 6 -3 10 3
10 15 0 11 7 23 15 26 8 4 13 10 10 14 -3 5 -1 11 5 15 5 3 10 1 10 -6 0 -7 3
-9 6 -6 4 4 2 13 -4 20 -9 10 -6 17 8 30 11 9 22 17 25 17 9 0 43 38 38 43 -2
3 5 8 16 12 12 3 19 10 16 15 -7 11 23 43 51 55 19 8 19 8 0 13 -11 2 -24 -2
-30 -10 -14 -18 -58 -48 -70 -48 -6 0 1 8 14 17 14 9 27 19 30 23 24 28 86 67
99 63 11 -3 13 -2 3 4 -9 7 5 23 52 61 35 28 87 72 116 99 29 26 57 47 63 45
5 -2 20 5 32 15 12 10 1 -1 -24 -24 -58 -54 -46 -55 24 -2 41 31 65 42 95 43
23 1 43 -1 46 -5 6 -10 99 -2 152 12 50 14 68 31 20 19 -62 -15 -140 -22 -133
-10 3 6 10 8 13 6 4 -2 32 2 62 10 30 8 69 14 86 14 17 0 37 7 44 15 13 16 45
21 35 5 -6 -9 92 16 110 29 6 4 28 8 50 9 22 2 44 9 50 17 5 8 12 11 15 6 3
-4 30 -7 60 -7z m-290 -14 c0 -5 -10 -10 -22 -9 -22 0 -22 1 -3 9 11 5 21 9
23 9 1 1 2 -3 2 -9z m980 -4 c0 -3 -4 -8 -10 -11 -5 -3 -10 -1 -10 4 0 6 5 11
10 11 6 0 10 -2 10 -4z m-1050 -10 c0 -9 -39 -13 -51 -5 -10 6 -4 9 19 9 17 0
32 -2 32 -4z m110 0 c0 -2 -7 -6 -15 -10 -8 -3 -15 -1 -15 4 0 6 7 10 15 10 8
0 15 -2 15 -4z m1017 -50 c4 -8 19 -16 33 -19 22 -4 22 -4 -5 -6 -29 -1 -55
13 -55 31 0 13 18 9 27 -6z m163 -30 c0 -3 -4 -8 -10 -11 -5 -3 -10 -1 -10 4
0 6 5 11 10 11 6 0 10 -2 10 -4z m-123 -23 c2 -6 -7 -9 -19 -8 -13 1 -31 3
-40 4 -10 0 -18 6 -18 11 0 13 73 6 77 -7z m38 -1 c-3 -3 -11 0 -18 7 -9 10
-8 11 6 5 10 -3 15 -9 12 -12z m35 -22 c0 -5 -5 -10 -11 -10 -5 0 -7 5 -4 10
3 6 8 10 11 10 2 0 4 -4 4 -10z m-1736 -68 c-77 -70 -234 -191 -199 -153 17
18 69 63 118 99 85 64 102 80 72 68 -25 -9 -17 2 13 18 49 27 48 16 -4 -32z
m-119 -62 c-3 -5 -16 -15 -28 -21 -19 -9 -19 -8 3 10 28 23 34 26 25 11z
m2080 -66 c9 -4 25 -25 37 -48 l21 -41 -23 20 c-24 22 -64 75 -56 75 2 0 12
-3 21 -6z m205 -579 c7 -9 8 -15 2 -15 -5 0 -12 7 -16 15 -3 8 -4 15 -2 15 2
0 9 -7 16 -15z m1860 -115 c-20 -13 -33 -13 -25 0 3 6 14 10 23 10 15 0 15 -2
2 -10z m-4119 -131 c-13 -11 -26 -17 -29 -14 -7 6 29 34 43 34 6 0 -1 -9 -14
-20z m-251 -4 c0 -2 -10 -9 -22 -15 -22 -11 -22 -10 -4 4 21 17 26 19 26 11z
m-105 -53 c-6 -4 -23 -18 -40 -32 l-30 -25 29 33 c17 17 34 32 40 32 6 0 6 -3
1 -8z m15 -22 c0 -5 -5 -10 -11 -10 -5 0 -7 5 -4 10 3 6 8 10 11 10 2 0 4 -4
4 -10z m347 -6 c-3 -3 -12 -4 -19 -1 -8 3 -5 6 6 6 11 1 17 -2 13 -5z m-408
-59 c-41 -45 -48 -45 -12 0 15 19 31 35 36 35 4 0 -7 -16 -24 -35z m121 30 c0
-2 -10 -9 -22 -15 -22 -11 -22 -10 -4 4 21 17 26 19 26 11z m99 2 c-2 -1 -13
-9 -24 -17 -19 -14 -19 -14 -6 3 7 9 18 17 24 17 6 0 8 -1 6 -3z m76 -7 c-3
-5 -11 -10 -16 -10 -6 0 -7 5 -4 10 3 6 11 10 16 10 6 0 7 -4 4 -10z m40 -10
c-16 -11 -34 -20 -40 -20 -5 0 4 9 20 20 17 11 35 20 40 20 6 0 -3 -9 -20 -20z
m-55 -24 c0 -2 -7 -7 -16 -10 -8 -3 -12 -2 -9 4 6 10 25 14 25 6z m-140 -16
c-8 -5 -19 -10 -25 -10 -5 0 -3 5 5 10 8 5 20 10 25 10 6 0 3 -5 -5 -10z
m-130 -4 c0 -2 -8 -10 -17 -17 -16 -13 -17 -12 -4 4 13 16 21 21 21 13z m35
-26 c-3 -5 -14 -10 -23 -9 -14 0 -13 2 3 9 27 11 27 11 20 0z m42 -36 c-3 -3
-12 -4 -19 -1 -8 3 -5 6 6 6 11 1 17 -2 13 -5z m100 -10 c-3 -3 -12 -4 -19 -1
-8 3 -5 6 6 6 11 1 17 -2 13 -5z m-305 -26 c-7 -7 -12 -8 -12 -2 0 14 12 26
19 19 2 -3 -1 -11 -7 -17z m68 0 c0 -4 -4 -8 -9 -8 -6 0 -12 4 -15 8 -3 5 1 9
9 9 8 0 15 -4 15 -9z m87 6 c-3 -3 -12 -4 -19 -1 -8 3 -5 6 6 6 11 1 17 -2 13
-5z m-212 -14 c3 -5 1 -10 -4 -10 -6 0 -11 5 -11 10 0 6 2 10 4 10 3 0 8 -4
11 -10z m242 -16 c-10 -11 -67 -14 -67 -4 0 5 15 10 33 12 35 3 44 1 34 -8z
m-107 2 c0 -2 -7 -7 -16 -10 -8 -3 -12 -2 -9 4 6 10 25 14 25 6z m-573 -88
c-3 -8 -6 -5 -6 6 -1 11 2 17 5 13 3 -3 4 -12 1 -19z m6234 -387 c3 0 27 -17
52 -36 25 -19 53 -35 61 -35 28 0 82 -65 96 -116 15 -51 17 -231 9 -684 -4
-248 0 -271 53 -306 16 -11 32 -31 35 -46 3 -15 9 -26 13 -23 4 2 6 -9 4 -25
-2 -17 0 -30 5 -30 15 0 18 -35 4 -48 -7 -7 -11 -17 -8 -22 3 -6 -1 -7 -10 -3
-13 5 -14 7 -3 14 11 7 11 9 0 9 -8 0 -16 -9 -19 -21 -4 -16 -8 -17 -14 -7 -7
10 -9 8 -9 -6 0 -13 -5 -17 -20 -13 -11 3 -18 1 -15 -3 3 -5 -3 -9 -12 -9 -10
0 -73 -3 -140 -6 -68 -2 -123 -1 -123 3 0 4 -17 7 -39 6 -58 -2 -162 16 -186
32 -12 8 -25 11 -29 7 -4 -5 -7 -3 -6 2 1 6 2 17 1 25 -1 12 -3 13 -10 1 -7
-10 -11 -5 -16 18 -3 17 -11 31 -15 31 -5 0 -6 7 -3 17 4 11 3 14 -5 9 -18
-11 -8 52 10 67 26 20 67 104 69 139 2 31 -4 202 -17 493 -8 178 -7 388 1 428
8 34 41 87 55 87 5 0 19 4 32 9 13 5 27 9 32 9 5 0 12 6 16 12 4 7 27 14 51
16 23 3 44 6 46 8 3 3 35 1 54 -3z m-2748 -101 c3 -11 2 -18 -3 -15 -4 3 -10
14 -13 25 -3 11 -2 18 3 15 4 -3 10 -14 13 -25z m7 -77 c-1 -38 -3 -44 -11
-30 -9 16 -4 77 7 77 2 0 4 -21 4 -47z m-30 -8 c0 -11 -4 -26 -8 -32 -5 -7 -8
7 -8 33 -1 27 2 40 7 32 5 -7 9 -22 9 -33z m-3211 -90 c0 -5 -4 -3 -9 5 -5 8
-9 22 -9 30 0 16 17 -16 18 -35z m3184 -56 c-7 -7 -12 -5 -17 6 -4 10 -2 14 5
9 8 -4 9 1 5 17 l-6 24 12 -23 c8 -16 8 -26 1 -33z m522 -259 c3 -5 1 -10 -4
-10 -6 0 -11 5 -11 10 0 6 2 10 4 10 3 0 8 -4 11 -10z m2705 -726 c0 -8 -19
-13 -24 -6 -3 5 1 9 9 9 8 0 15 -2 15 -3z m-5880 -656 c0 -17 -17 -7 -28 17
-17 37 -15 41 8 15 11 -13 20 -27 20 -32z m44 27 c-4 -8 -10 -13 -15 -10 -4 3
-6 12 -3 20 4 8 10 13 15 10 4 -3 6 -12 3 -20z m-86 -140 c-3 -3 -9 2 -12 12
-6 14 -5 15 5 6 7 -7 10 -15 7 -18z m516 -104 c-2 -3 -12 3 -22 13 -16 17 -16
18 5 5 12 -7 20 -15 17 -18z m61 -19 c-3 -3 -11 0 -18 7 -9 10 -8 11 6 5 10
-3 15 -9 12 -12z m3537 -79 c65 -44 67 -47 88 -181 5 -29 7 -72 5 -95 -2 -23
-7 -82 -10 -132 -11 -159 -17 -230 -21 -236 -2 -4 8 -10 22 -13 15 -4 24 -9
21 -12 -3 -3 -54 8 -114 25 -139 39 -320 103 -270 95 35 -5 37 -3 29 13 -5 10
-10 36 -11 58 -1 22 -4 56 -6 75 -16 132 -24 270 -16 295 9 31 37 66 55 69 8
1 25 13 36 27 24 27 92 49 130 42 14 -3 41 -16 62 -30z m-4232 -3 c0 -5 -4
-10 -10 -10 -5 0 -10 5 -10 10 0 6 5 10 10 10 6 0 10 -4 10 -10z m-23 -137
c-3 -10 -5 -4 -5 12 0 17 2 24 5 18 2 -7 2 -21 0 -30z m10 -45 c-3 -8 -6 -5
-6 6 -1 11 2 17 5 13 3 -3 4 -12 1 -19z m3047 -6 c3 -5 44 -21 91 -37 47 -15
84 -30 81 -32 -7 -8 -175 49 -187 63 -8 9 -8 14 -1 14 6 0 13 -4 16 -8z m806
-322 c18 -12 2 -12 -25 0 -13 6 -15 9 -5 9 8 0 22 -4 30 -9z m2180 -40 c8 -15
8 -20 -3 -20 -7 0 -13 9 -13 20 0 11 1 20 3 20 1 0 7 -9 13 -20z m-4440 -445
c16 -19 13 -22 -25 -29 -26 -6 -27 -5 -7 3 24 11 31 27 7 17 -15 -5 -20 5 -8
17 10 11 19 8 33 -8z m66 -66 l19 -21 -90 7 c-49 4 -92 9 -94 11 -5 4 67 8 84
4 50 -10 79 -11 70 -2 -5 6 -21 12 -35 15 l-25 4 26 2 c15 0 34 -8 45 -20z
m-801 -370 c33 -40 86 -101 117 -138 32 -36 79 -106 105 -156 25 -49 49 -91
53 -93 7 -3 -13 -85 -70 -287 -63 -223 -125 -529 -132 -647 -1 -20 -4 -9 -8
27 -7 55 -7 53 -7 -30 1 -49 0 -110 -2 -135 -3 -44 -3 -44 -12 -15 -57 181
-153 571 -155 630 -3 64 -22 170 -29 163 -5 -4 12 -149 20 -173 6 -18 6 -18
-5 -2 -6 10 -56 151 -110 315 l-98 297 45 73 c48 77 138 166 157 155 6 -3 8
-3 4 2 -4 4 8 22 27 40 18 18 31 36 28 39 -4 3 -2 6 3 6 5 0 36 -32 69 -71z
m952 -31 c-7 -4 -10 -8 -7 -9 53 -10 59 -9 54 8 -4 11 5 6 23 -13 34 -37 92
-78 100 -71 8 9 28 -15 53 -63 21 -40 21 -49 11 -109 -6 -36 -29 -176 -51
-311 -34 -217 -154 -827 -163 -837 -2 -2 -7 26 -10 61 -18 187 -130 553 -283
922 l-26 61 27 74 c33 94 100 228 127 254 11 11 17 13 13 5 -5 -8 3 -5 16 7
29 26 74 39 84 24 3 -6 11 -9 16 -5 6 3 5 12 -3 21 -12 15 -11 15 9 2 16 -9
19 -16 10 -21z m220 -510 c-3 -7 -5 -2 -5 12 0 14 2 19 5 13 2 -7 2 -19 0 -25z
m1848 -2558 c4 -6 -4 -19 -17 -30 -30 -25 -48 -26 -19 -1 13 11 20 25 16 30
-3 6 -2 11 4 11 5 0 13 -5 16 -10z m-100 -118 c-3 -3 -11 0 -18 7 -9 10 -8 11
6 5 10 -3 15 -9 12 -12z m-4772 -169 c-7 -2 -21 -2 -30 0 -10 3 -4 5 12 5 17
0 24 -2 18 -5z m567 -33 c8 -5 11 -10 5 -10 -5 0 -17 5 -25 10 -8 5 -10 10 -5
10 6 0 17 -5 25 -10z"/>
<path d="M5295 9230 c-3 -5 -1 -10 4 -10 6 0 11 5 11 10 0 6 -2 10 -4 10 -3 0
-8 -4 -11 -10z"/>
<path d="M5640 9180 c8 -5 20 -10 25 -10 6 0 3 5 -5 10 -8 5 -19 10 -25 10 -5
0 -3 -5 5 -10z"/>
<path d="M6070 8979 c0 -5 10 -9 22 -9 12 0 18 3 14 7 -10 11 -36 12 -36 2z"/>
<path d="M4075 8869 c-4 -6 -5 -12 -2 -15 2 -3 7 2 10 11 7 17 1 20 -8 4z"/>
<path d="M3816 8204 c-4 -9 -4 -19 -1 -22 2 -3 7 3 11 12 4 9 4 19 1 22 -2 3
-7 -3 -11 -12z"/>
<path d="M6064 8107 c37 -24 67 -49 63 -54 -3 -2 -26 10 -53 26 -26 17 -53 31
-58 31 -6 0 17 -18 52 -41 34 -22 62 -45 62 -50 0 -4 15 -16 33 -25 l32 -16
-33 32 c-43 42 -33 51 15 14 21 -15 31 -20 24 -10 -18 22 -135 106 -147 105
-5 0 -1 -6 10 -12z"/>
<path d="M5944 8088 c10 -7 31 -23 46 -35 15 -13 32 -23 37 -23 5 0 18 -7 29
-15 16 -13 13 -12 -20 1 -22 8 -51 23 -65 32 -25 16 -25 16 -11 -2 8 -10 37
-28 65 -41 27 -12 66 -33 85 -46 l36 -24 -46 1 c-77 2 -80 3 -73 21 5 12 3 14
-7 8 -9 -5 -11 -4 -6 3 9 15 11 15 30 -4 9 -8 24 -14 34 -12 11 3 -3 14 -41
32 -31 15 -72 40 -90 54 -17 15 -26 19 -19 10 8 -9 10 -23 6 -29 -4 -7 -3 -9
2 -6 6 3 16 2 24 -4 11 -6 6 -8 -15 -5 -16 1 -48 15 -69 29 -21 15 -44 27 -50
27 -6 0 27 -25 73 -55 46 -30 90 -55 98 -55 8 0 11 -5 8 -10 -4 -6 -11 -7 -17
-4 -7 5 -8 2 -3 -5 4 -7 17 -10 30 -7 12 3 25 2 29 -2 4 -4 36 -5 72 -3 51 2
71 -1 99 -18 19 -11 35 -16 35 -11 0 5 -10 12 -22 16 l-23 8 25 7 25 8 -25 -1
c-14 -1 -36 4 -49 11 -14 8 -36 18 -50 22 -21 7 -18 8 13 4 22 -2 35 -1 30 3
-45 38 -106 82 -139 101 -25 14 -31 16 -17 4 58 -45 86 -72 75 -73 -7 0 -13 4
-13 10 0 5 -23 21 -50 35 -30 15 -48 30 -44 37 4 6 1 9 -7 6 -8 -3 -23 -1 -34
4 -19 8 -19 8 -1 -4z m56 -102 c0 -2 -7 -7 -16 -10 -8 -3 -12 -2 -9 4 6 10 25
14 25 6z"/>
<path d="M5885 8045 c20 -15 39 -24 42 -22 7 7 -48 47 -65 47 -8 0 2 -11 23
-25z"/>
<path d="M5650 8040 c8 -5 22 -9 30 -9 10 0 8 3 -5 9 -27 12 -43 12 -25 0z"/>
<path d="M5723 8036 c15 -12 9 -13 -45 -11 -43 2 -81 -3 -118 -16 -30 -10 -61
-17 -70 -14 -13 4 -42 -27 -70 -74 -11 -19 -33 -3 -27 20 3 11 1 16 -5 13 -5
-3 -8 -15 -5 -25 3 -11 2 -19 -3 -19 -4 0 -10 -11 -12 -25 -3 -13 -1 -22 3
-19 5 3 9 12 9 20 0 8 5 12 10 9 6 -4 18 -1 27 7 15 12 16 10 9 -17 -7 -30 -7
-30 19 8 27 39 54 53 35 18 -5 -11 -15 -23 -20 -26 -6 -3 -10 -12 -10 -18 0
-7 18 9 41 36 22 26 44 47 49 47 5 0 -4 -15 -21 -32 -16 -18 -29 -37 -29 -43
1 -5 12 3 25 20 31 37 43 28 13 -11 l-23 -29 32 23 c18 13 35 27 38 32 4 6 12
10 18 10 7 0 3 -7 -7 -15 -19 -14 -19 -15 6 -15 15 0 29 4 32 9 3 5 15 11 26
14 18 5 19 3 8 -10 -13 -16 -11 -16 52 5 9 3 7 -2 -5 -12 -19 -15 -17 -15 25
0 54 18 171 28 220 18 33 -7 34 -7 10 -14 -15 -3 3 -6 42 -6 38 1 58 4 45 7
-116 34 -176 55 -196 71 -13 10 -19 18 -14 18 6 0 16 -7 23 -15 6 -8 15 -14
18 -13 4 1 14 -1 22 -5 8 -3 28 -8 45 -10 27 -5 28 -4 10 9 -10 8 -24 14 -31
14 -6 0 -17 6 -23 14 -6 7 -30 17 -53 20 -23 4 -49 12 -57 19 -8 7 -15 11 -15
9 -1 -2 -14 1 -29 7 -38 15 -46 13 -24 -3z m-242 -63 c-17 -29 -51 -69 -51
-60 0 8 52 77 58 77 1 0 -2 -8 -7 -17z m29 -13 c0 -5 -5 -10 -11 -10 -5 0 -7
5 -4 10 3 6 8 10 11 10 2 0 4 -4 4 -10z"/>
<path d="M5790 8035 c14 -8 32 -14 40 -14 9 0 4 6 -10 14 -14 8 -32 14 -40 14
-9 0 -4 -6 10 -14z"/>
<path d="M5425 7970 c-10 -11 -16 -22 -14 -24 2 -2 12 7 22 20 22 29 17 32 -8
4z"/>
<path d="M4660 7949 c0 -15 33 -99 37 -95 6 6 -16 78 -28 91 -5 5 -9 7 -9 4z"/>
<path d="M6145 7895 c6 -2 28 -8 50 -14 36 -9 38 -9 21 4 -11 8 -34 15 -50 14
-17 0 -26 -2 -21 -4z"/>
<path d="M6210 7856 c0 -3 9 -10 20 -16 11 -6 20 -8 20 -6 0 3 -9 10 -20 16
-11 6 -20 8 -20 6z"/>
<path d="M5610 7699 c-98 -14 -182 -65 -216 -130 -18 -35 -18 -34 9 -35 53 -3
87 -9 87 -16 0 -4 13 -5 29 -2 16 4 32 1 35 -5 4 -6 12 -11 17 -11 6 0 7 6 3
13 -5 8 -2 7 9 -2 11 -9 52 -15 110 -18 61 -3 87 -1 78 5 -8 6 -28 8 -46 5
-30 -5 -191 32 -209 48 -5 4 -15 5 -24 1 -11 -4 -14 -1 -9 11 3 9 3 16 -1 14
-13 -4 -12 13 0 33 7 11 16 20 20 20 5 0 17 9 28 20 21 21 46 28 35 10 -10
-17 15 -83 43 -112 22 -24 34 -28 79 -28 82 0 133 46 133 120 0 16 5 30 11 30
17 0 79 -40 79 -51 0 -6 5 -7 11 -3 8 4 8 0 0 -15 -9 -16 -9 -21 0 -21 7 0 17
-8 24 -17 11 -15 12 -14 10 10 l-3 27 42 -25 c53 -31 82 -33 39 -2 -36 24 -45
44 -12 27 11 -6 25 -10 31 -8 6 2 -6 12 -28 22 -21 10 -64 31 -95 46 -34 17
-88 33 -134 39 -85 12 -105 12 -185 0z m84 -50 c-3 -5 -10 -7 -15 -3 -5 3 -7
10 -3 15 3 5 10 7 15 3 5 -3 7 -10 3 -15z m89 -9 c3 -13 0 -20 -9 -20 -8 0
-14 9 -14 20 0 11 4 20 9 20 5 0 11 -9 14 -20z m-353 -81 c0 -6 -4 -7 -10 -4
-5 3 -10 11 -10 16 0 6 5 7 10 4 6 -3 10 -11 10 -16z m30 1 c0 -5 -2 -10 -4
-10 -3 0 -8 5 -11 10 -3 6 -1 10 4 10 6 0 11 -4 11 -10z"/>
<path d="M4155 7685 c-33 -7 -84 -20 -114 -29 -76 -22 -94 -20 -43 5 53 27 49
34 -9 15 -90 -29 -120 -43 -133 -61 -7 -10 -20 -16 -28 -13 -9 4 -14 -1 -15
-13 -1 -10 3 -19 8 -19 6 0 7 -5 3 -12 -4 -6 -3 -8 4 -4 6 3 14 1 17 -4 4 -6
20 -10 36 -8 17 2 33 -3 38 -11 6 -9 32 -13 92 -12 56 1 90 -4 105 -14 12 -7
30 -14 40 -15 50 -2 74 -6 74 -11 0 -3 10 -5 22 -4 33 2 35 25 2 25 -37 0
-100 20 -154 48 -41 22 -33 25 15 7 15 -6 13 -2 -8 19 -24 22 -27 29 -17 41
15 18 36 19 44 3 3 -7 4 -4 3 6 -1 10 4 21 11 23 7 3 12 -5 12 -22 0 -38 26
-83 60 -100 35 -18 119 -19 141 -2 34 26 50 64 45 106 l-5 41 27 -15 c79 -44
149 -108 96 -88 -10 4 -12 0 -8 -10 4 -11 -1 -18 -18 -21 -148 -33 -209 -51
-187 -54 15 -2 65 6 112 18 47 11 106 23 131 26 29 4 46 12 46 20 0 26 -72 93
-132 124 -56 27 -69 30 -157 29 -53 0 -123 -6 -156 -14z m145 -40 c0 -8 -4
-15 -10 -15 -5 0 -10 7 -10 15 0 8 5 15 10 15 6 0 10 -7 10 -15z m86 -21 c-5
-13 -10 -14 -18 -6 -6 6 -8 18 -4 28 5 13 10 14 18 6 6 -6 8 -18 4 -28z m-436
12 c0 -2 -7 -7 -16 -10 -8 -3 -12 -2 -9 4 6 10 25 14 25 6z m625 -76 c3 -5 -1
-10 -10 -10 -9 0 -13 5 -10 10 3 6 8 10 10 10 2 0 7 -4 10 -10z"/>
<path d="M5970 7670 c8 -5 20 -10 25 -10 6 0 3 5 -5 10 -8 5 -19 10 -25 10 -5
0 -3 -5 5 -10z"/>
<path d="M6735 7600 c-18 -19 -17 -20 2 -20 12 0 23 8 26 20 3 11 2 20 -2 20
-5 0 -16 -9 -26 -20z"/>
<path d="M5790 7512 c0 -4 10 -9 22 -9 18 -2 20 0 8 7 -18 12 -30 13 -30 2z"/>
<path d="M4791 7242 c-10 -19 -10 -26 1 -40 12 -15 11 -16 -5 -3 -11 9 -15 21
-11 33 5 17 3 18 -15 8 -12 -6 -19 -15 -16 -21 4 -5 3 -9 -2 -8 -21 4 -33 -2
-33 -16 0 -8 -7 -15 -15 -15 -8 0 -15 -5 -15 -10 0 -6 -9 -21 -21 -33 -44 -46
-130 -166 -149 -208 -43 -97 -13 -201 73 -245 15 -8 55 -16 90 -17 58 -3 64
-1 74 20 7 14 7 23 1 23 -5 0 -6 6 -3 13 4 6 0 4 -8 -6 -19 -23 -97 -33 -128
-16 -53 28 -121 129 -86 129 5 0 4 7 -4 16 -10 13 -10 17 2 25 8 5 9 9 2 9
-12 0 -6 37 8 46 5 3 6 -3 3 -13 -3 -10 8 -3 26 17 18 19 36 34 41 33 5 -2 9
2 9 9 0 6 3 9 6 5 4 -3 20 1 37 10 18 9 32 12 34 6 6 -17 73 19 73 39 0 10 5
18 10 18 6 0 10 5 10 11 0 5 -4 7 -10 4 -5 -3 -10 -1 -10 4 0 6 7 11 16 11 8
0 12 5 9 10 -3 6 -1 10 5 10 7 0 10 6 7 14 -3 7 0 19 6 25 8 8 8 11 -1 11 -7
0 -12 5 -12 10 0 6 7 10 15 10 8 0 15 9 15 19 0 11 3 27 7 37 4 11 3 15 -5 11
-6 -4 -12 1 -14 10 -3 16 -6 15 -17 -5z"/>
<path d="M6643 6812 c-24 -31 -45 -73 -49 -92 -16 -95 -41 -136 -113 -181 -25
-16 -37 -29 -28 -29 11 0 17 -8 18 -22 0 -13 1 -71 2 -129 2 -110 4 -114 55
-170 22 -25 26 -26 60 -16 20 7 53 28 74 47 36 35 37 38 33 96 -2 32 -5 127
-5 209 -1 83 -6 186 -10 230 -5 52 -4 84 2 93 6 7 9 14 7 17 -2 2 -23 -22 -46
-53z"/>
<path d="M4698 6794 c-35 -18 -36 -31 -2 -31 14 0 35 -10 48 -22 24 -22 46
-28 46 -11 0 15 38 12 47 -3 9 -16 101 -49 114 -41 4 2 -1 14 -11 24 -11 11
-20 29 -20 41 0 11 -4 17 -10 14 -5 -3 -10 -1 -10 4 0 6 -3 10 -7 9 -5 -1 -33
6 -65 15 -68 21 -94 21 -130 1z"/>
<path d="M5120 6773 l-35 -16 50 -7 c146 -22 163 -19 101 19 -40 25 -69 26
-116 4z"/>
<path d="M5255 6680 l-30 -8 27 -1 c15 0 30 4 33 9 3 6 5 9 3 9 -2 -1 -16 -5
-33 -9z"/>
<path d="M3570 6631 c0 -6 5 -13 10 -16 6 -3 10 1 10 9 0 9 -4 16 -10 16 -5 0
-10 -4 -10 -9z"/>
<path d="M4555 6207 c-20 -11 -25 -12 -108 -17 -33 -3 -46 -8 -43 -16 3 -8 -1
-11 -9 -8 -9 4 -14 -1 -13 -13 0 -10 -3 -26 -7 -36 -5 -13 -3 -16 8 -12 8 4
21 -1 30 -9 8 -8 17 -12 21 -9 3 4 6 -1 6 -11 0 -9 5 -14 10 -11 6 3 10 1 10
-4 0 -6 6 -11 14 -11 8 0 16 -5 18 -11 2 -5 12 -12 23 -13 11 -2 19 -9 18 -14
-2 -7 4 -9 14 -5 10 4 14 2 9 -5 -4 -7 3 -10 21 -8 16 1 36 -1 46 -6 12 -6 17
-5 17 4 0 9 3 9 10 -2 5 -8 13 -11 17 -6 8 7 9 12 12 39 0 7 15 21 33 31 31
19 31 19 24 0 -5 -12 5 -7 28 15 20 19 36 30 36 23 0 -7 -4 -12 -10 -12 -5 0
-7 -7 -4 -15 4 -8 10 -15 16 -15 5 0 7 4 4 9 -4 5 -3 16 0 25 5 13 9 14 21 4
9 -7 17 -8 21 -2 4 5 41 10 82 11 100 2 193 13 204 24 12 11 143 12 149 2 3
-5 41 -6 85 -3 61 4 78 2 75 -7 -3 -7 0 -13 6 -13 6 0 11 5 11 11 0 8 12 10
35 6 36 -6 41 -2 26 22 -10 16 -131 23 -131 7 0 -6 -4 -6 -11 1 -6 6 -18 9
-25 6 -8 -3 -14 0 -14 6 0 6 -5 11 -11 11 -5 0 -7 -5 -3 -11 8 -13 -113 -4
-130 10 -6 4 -35 3 -66 -3 -59 -12 -102 -12 -137 -1 -16 5 -22 2 -26 -12 -4
-16 -5 -16 -6 0 -1 18 -21 25 -21 7 0 -7 -6 -7 -18 -1 -13 7 -22 7 -30 -1 -8
-8 -16 -7 -28 3 -9 8 -19 13 -21 12 -1 -2 -6 -2 -10 -2 -5 1 -21 3 -38 4 -76
6 -151 19 -163 28 -19 15 -55 17 -77 4z m105 -172 c0 -8 -4 -15 -10 -15 -5 0
-7 7 -4 15 4 8 8 15 10 15 2 0 4 -7 4 -15z"/>
<path d="M4360 6139 c0 -5 5 -7 10 -4 6 3 10 8 10 11 0 2 -4 4 -10 4 -5 0 -10
-5 -10 -11z"/>
<path d="M4692 6005 c-7 -14 -12 -34 -12 -43 1 -15 2 -15 11 1 11 18 22 67 16
67 -2 0 -9 -11 -15 -25z"/>
<path d="M4795 5862 c15 -17 88 -25 189 -23 67 2 35 9 -74 16 -58 4 -109 10
-115 13 -7 3 -7 1 0 -6z"/>
<path d="M6152 5655 c0 -16 2 -22 5 -12 2 9 2 23 0 30 -3 6 -5 -1 -5 -18z"/>
<path d="M3710 5254 c-6 -14 -10 -42 -9 -62 l1 -37 9 30 c10 31 18 95 12 95
-2 0 -8 -12 -13 -26z"/>
<path d="M4085 5270 c3 -5 8 -10 11 -10 2 0 4 5 4 10 0 6 -5 10 -11 10 -5 0
-7 -4 -4 -10z"/>
<path d="M5141 5129 c-16 -26 -9 -34 18 -19 12 6 26 8 31 5 5 -3 12 0 16 6 4
8 3 9 -4 5 -7 -4 -12 -2 -12 4 0 6 -5 8 -11 4 -6 -3 -14 -2 -18 4 -4 7 -11 4
-20 -9z"/>
<path d="M4490 5050 c0 -5 5 -10 11 -10 5 0 7 5 4 10 -3 6 -8 10 -11 10 -2 0
-4 -4 -4 -10z"/>
<path d="M5118 5043 c7 -3 16 -2 19 1 4 3 -2 6 -13 5 -11 0 -14 -3 -6 -6z"/>
<path d="M5950 4838 c-43 -62 -125 -153 -245 -272 l-180 -180 135 122 c134
120 234 229 295 320 55 82 67 102 63 102 -2 0 -33 -42 -68 -92z"/>
<path d="M3780 4621 c0 -6 4 -13 10 -16 6 -3 7 1 4 9 -7 18 -14 21 -14 7z"/>
<path d="M3811 4514 c0 -11 3 -14 6 -6 3 7 2 16 -1 19 -3 4 -6 -2 -5 -13z"/>
<path d="M4455 4460 c10 -11 20 -20 23 -20 3 0 -3 9 -13 20 -10 11 -20 20 -23
20 -3 0 3 -9 13 -20z"/>
<path d="M5453 4339 c-61 -52 -62 -54 -38 -40 26 14 102 81 93 81 -4 0 -28
-19 -55 -41z"/>
<path d="M5029 4023 c-13 -16 -12 -17 4 -4 9 7 17 15 17 17 0 8 -8 3 -21 -13z"/>
<path d="M4984 4012 c-11 -4 -33 -17 -50 -30 -28 -22 -27 -22 24 3 28 14 52
28 52 30 0 3 -1 5 -2 4 -2 -1 -12 -4 -24 -7z"/>
<path d="M4729 3984 l-24 -27 28 18 c15 9 27 21 27 26 0 14 -5 11 -31 -17z"/>
<path d="M5574 3624 c0 -30 2 -33 9 -16 5 12 5 26 0 36 -7 12 -9 7 -9 -20z"/>
<path d="M4555 3570 c10 -11 20 -20 23 -20 3 0 -3 9 -13 20 -10 11 -20 20 -23
20 -3 0 3 -9 13 -20z"/>
<path d="M4572 3430 c0 -14 2 -19 5 -12 2 6 2 18 0 25 -3 6 -5 1 -5 -13z"/>
<path d="M4631 3423 c-1 -12 4 -25 9 -28 12 -7 12 2 0 30 -8 19 -9 19 -9 -2z"/>
<path d="M4638 3344 c3 -26 1 -35 -7 -30 -6 4 -11 3 -11 -2 0 -5 8 -12 18 -14
15 -4 17 1 13 39 -1 23 -6 43 -10 43 -4 0 -5 -16 -3 -36z"/>
<path d="M4266 3288 c3 -18 10 -42 15 -53 6 -17 8 -15 8 10 1 40 -9 75 -21 75
-6 0 -7 -13 -2 -32z"/>
<path d="M4640 3269 c0 -5 5 -7 10 -4 6 3 10 8 10 11 0 2 -4 4 -10 4 -5 0 -10
-5 -10 -11z"/>
<path d="M4290 3201 c0 -6 4 -13 10 -16 6 -3 7 1 4 9 -7 18 -14 21 -14 7z"/>
<path d="M4416 2937 c3 -10 9 -15 12 -12 3 3 0 11 -7 18 -10 9 -11 8 -5 -6z"/>
<path d="M4626 2437 c3 -10 9 -15 12 -12 3 3 0 11 -7 18 -10 9 -11 8 -5 -6z"/>
<path d="M5365 3499 c-4 -6 -5 -12 -2 -15 2 -3 7 2 10 11 7 17 1 20 -8 4z"/>
<path d="M5521 2354 c0 -11 3 -14 6 -6 3 7 2 16 -1 19 -3 4 -6 -2 -5 -13z"/>
<path d="M8590 10213 c-6 -16 -14 -37 -19 -48 -23 -50 -27 -88 -23 -205 4
-113 5 -214 4 -355 -1 -27 -1 -54 -1 -60 -3 -286 -12 -799 -15 -825 -2 -19 -7
-105 -11 -190 l-6 -155 37 -56 c35 -53 38 -56 60 -44 13 7 39 31 58 55 28 35
33 50 32 89 -1 25 -5 52 -9 58 -18 29 -25 175 -31 663 -3 253 -2 414 5 449 10
52 30 85 53 86 58 3 101 20 130 53 146 171 260 222 343 156 31 -25 87 -109 94
-142 1 -4 5 -17 10 -30 5 -13 9 -28 9 -33 0 -5 4 -9 9 -9 5 0 12 -8 15 -17 4
-13 16 -18 43 -17 52 0 77 19 120 87 21 31 41 57 46 57 6 0 15 7 21 16 8 11
30 15 71 16 75 1 107 -8 161 -43 43 -29 70 -36 76 -20 2 5 21 12 42 15 29 5
53 19 90 56 64 63 111 73 214 44 l22 -6 0 191 0 191 -820 0 -820 0 -10 -27z"/>
<path d="M6425 9530 c3 -5 11 -10 16 -10 6 0 7 5 4 10 -3 6 -11 10 -16 10 -6
0 -7 -4 -4 -10z"/>
<path d="M6435 9500 c3 -5 11 -10 16 -10 6 0 7 5 4 10 -3 6 -11 10 -16 10 -6
0 -7 -4 -4 -10z"/>
<path d="M9409 9143 c-13 -16 -12 -17 4 -4 9 7 17 15 17 17 0 8 -8 3 -21 -13z"/>
<path d="M9424 9119 c-3 -6 -12 -8 -20 -5 -8 3 -14 -1 -14 -8 0 -7 -6 -19 -14
-26 -8 -6 -12 -19 -9 -27 5 -12 3 -14 -7 -8 -9 5 -11 4 -6 -3 4 -6 0 -22 -7
-34 -39 -61 -52 -148 -62 -412 -3 -70 -8 -139 -11 -152 -4 -15 -2 -24 6 -24 6
0 9 -4 5 -10 -3 -5 6 -17 21 -26 31 -21 157 -47 147 -31 -4 6 0 8 10 4 21 -8
75 11 97 33 10 10 25 22 35 27 21 12 27 60 9 67 -8 3 -14 16 -14 29 0 13 -4
27 -10 33 -5 5 -12 50 -15 98 -6 113 -34 282 -55 331 -17 41 -23 60 -22 68 1
4 -2 7 -8 7 -5 0 -12 15 -16 34 -6 35 -28 54 -40 35z"/>
<path d="M9816 8591 c-4 -7 -5 -15 -2 -18 9 -9 19 4 14 18 -4 11 -6 11 -12 0z"/>
<path d="M9802 8551 c-8 -4 -13 -11 -12 -15 4 -15 -12 -66 -19 -62 -20 13 -2
-36 22 -60 22 -21 30 -25 40 -15 19 19 10 161 -11 161 -4 0 -13 -4 -20 -9z"/>
<path d="M3149 7599 c8 -24 -6 -105 -44 -254 -32 -120 -44 -201 -33 -218 4 -7
8 8 8 35 0 26 6 67 14 90 8 24 29 107 46 185 25 111 29 146 20 162 -14 27 -22
27 -11 0z"/>
<path d="M2986 7574 c-4 -20 -5 -38 -3 -40 3 -3 8 11 11 32 4 20 5 38 3 40 -3
3 -8 -11 -11 -32z"/>
<path d="M2973 7445 c0 -44 2 -61 4 -37 2 23 2 59 0 80 -2 20 -4 1 -4 -43z"/>
<path d="M3011 7250 c0 -8 4 -24 9 -35 5 -13 9 -14 9 -5 0 8 -4 24 -9 35 -5
13 -9 14 -9 5z"/>
<path d="M3031 7180 c0 -8 4 -24 9 -35 5 -13 9 -14 9 -5 0 8 -4 24 -9 35 -5
13 -9 14 -9 5z"/>
<path d="M3168 6900 c29 -29 56 -50 58 -47 7 7 -14 47 -25 47 -4 0 -26 12 -47
26 -36 23 -35 21 14 -26z"/>
<path d="M8195 6470 c-4 -6 0 -10 7 -10 9 0 10 -2 2 -8 -7 -4 -14 -23 -17 -42
-3 -19 -11 -63 -18 -97 -11 -54 -10 -67 5 -107 10 -25 24 -46 31 -46 23 0 75
63 75 91 0 14 -8 50 -17 80 -9 30 -17 57 -17 61 -1 3 -4 9 -8 13 -4 4 -4 13
-1 21 3 8 0 14 -6 14 -6 0 -8 6 -5 14 6 16 -22 30 -31 16z"/>
<path d="M10225 4501 c3 -11 3 -21 -2 -21 -5 0 -9 -8 -10 -17 0 -10 -4 -34 -7
-53 -3 -19 -8 -59 -11 -88 -3 -30 -8 -58 -11 -63 -3 -6 -7 -33 -9 -61 -2 -27
-8 -55 -13 -60 -6 -6 -8 -17 -5 -26 4 -8 2 -13 -3 -10 -7 5 -9 -20 -5 -77 1
-14 71 -95 82 -95 14 0 11 577 -2 586 -8 4 -9 0 -4 -15z"/>
<path d="M8215 1060 c3 -5 8 -10 11 -10 2 0 4 5 4 10 0 6 -5 10 -11 10 -5 0
-7 -4 -4 -10z"/>
<path d="M8501 922 c-39 -22 -42 -26 -25 -33 29 -11 34 -10 34 6 0 8 15 24 33
35 48 29 9 22 -42 -8z"/>
<path d="M8428 246 c-78 -69 -245 -246 -231 -246 4 0 60 53 123 118 63 66 135
135 159 156 25 20 40 36 33 36 -6 0 -44 -29 -84 -64z"/>
<path d="M7950 75 c13 -14 26 -25 28 -25 3 0 -5 11 -18 25 -13 14 -26 25 -28
25 -3 0 5 -11 18 -25z"/>
<path d="M7240 10 c0 -6 7 -10 15 -10 8 0 15 2 15 4 0 2 -7 6 -15 10 -8 3 -15
1 -15 -4z"/>
</g>
</svg>
