<svg xmlns="http://www.w3.org/2000/svg" viewBox="0 0 96 96" role="img" aria-label="Flask">
  <path fill="#111827" d="M41 12h14v8l-2 6v10.8l22.9 31.6A10 10 0 0 1 67.8 84H28.2a10 10 0 0 1-8.1-15.6L43 36.8V26l-2-6v-8Zm4 16v12.1L26.6 65.5A4 4 0 0 0 29.8 72h36.4a4 4 0 0 0 3.2-6.5L51 40.1V28H45Z"/>
  <circle cx="39" cy="53" r="4" fill="#3b82f6"/>
  <circle cx="49" cy="60" r="3.5" fill="#22c55e"/>
  <circle cx="57" cy="51" r="4.5" fill="#f59e0b"/>
  <circle cx="45" cy="68" r="3.5" fill="#ec4899"/>
</svg>
