<svg xmlns="http://www.w3.org/2000/svg" viewBox="0 0 96 96" role="img" aria-label="HTML">
  <path fill="#e44d26" d="M18 10h60l-5.4 61.4L48 86 23.4 71.4 18 10Z"/>
  <path fill="#f16529" d="M48 15h24.5l-4.6 52.3L48 78V15Z"/>
  <path fill="#ebebeb" d="M48 37H35.7l-.8-9H48V19.2H25.3l.2 2.4 2.2 24.2H48V37Zm0 22.7-.1.1-10.3-2.8-.7-8.1h-9.2l1.4 15.2 18.8 5.2.1-.1v-9.5Z"/>
  <path fill="#fff" d="M48 37v8.8h11.4l-1.1 11.2L48 59.8v9.4l18.8-5.2.2-1.6 2.1-23 .2-2.3H48Zm0-17.8V28h22.1l.2-2  .4-4.4.2-2.4H48Z"/>
</svg>
